<svg xmlns="http://www.w3.org/2000/svg" width="86" height="30" viewBox="0 0 86 30" fill="none">
	<path d="M5.13966 0C2.47403 0 0.317383 2.15112 0.317383 4.80685V25.1941C0.317383 27.8477 2.47403 30 5.13966 30H25.5997C28.2632 30 30.4207 27.8478 30.4207 25.1941V24.9855C30.3311 24.9482 22.5972 21.7334 18.6663 19.8497C16.0142 23.1021 12.5936 25.0754 9.04198 25.0754C3.0363 25.0754 0.996864 19.8373 3.84055 16.3892C4.4606 15.6376 5.51534 14.9195 7.15236 14.5175C9.71321 13.8904 13.7887 14.909 17.6085 16.1652C18.2956 14.9038 18.8736 13.5145 19.3042 12.0354H13.4185H7.53281V10.8473H13.6026V8.717H6.25099V7.52789H13.6026V4.48895C13.6026 4.48895 13.6026 3.97704 14.1232 3.97704H17.0904V7.52788H24.3581V8.71699H17.0904V10.8473H23.0227C22.455 13.1649 21.5932 15.2983 20.5112 17.171C22.3116 17.82 23.9278 18.4356 25.1323 18.8376C29.1498 20.1773 30.2757 20.341 30.4211 20.3581V4.80695C30.4211 2.15122 28.2634 0.000100001 25.6 0.000100001H5.13999L5.13966 0ZM8.44084 16.2542C8.18305 16.2571 7.92411 16.2711 7.66321 16.2967C6.91119 16.3721 5.49921 16.7029 4.72727 17.3833C2.41356 19.3942 3.79837 23.0704 8.48127 23.0704C11.2035 23.0704 13.9234 21.336 16.06 18.5589C13.3054 17.2193 10.9328 16.2254 8.44084 16.2542Z" fill="#484A5A" />
	<path d="M82.7768 20.8555L81.433 23.7719L80.0693 20.8555H78.737L80.8118 24.8877V27.7004H82.0341V24.8877L82.0414 24.872L84.1079 20.8555L82.7768 20.8555ZM72.9381 22.6199L73.8859 25.4588H71.9567L72.9381 22.6199ZM74.1771 26.3214L74.6338 27.7H75.9147L73.3926 20.855H72.4133L69.8996 27.7H71.1816L71.6582 26.3214H74.1771ZM64.6173 24.1277H63.2567V21.786H64.6173C65.3012 21.786 65.7097 22.3837 65.7097 22.9615C65.7097 23.5268 65.3274 24.1276 64.6173 24.1276V24.1277ZM64.6864 20.8553H62.0249V27.7003H63.2567V25.0687H64.6863C66.0143 25.0687 66.9424 24.202 66.9424 22.9615C66.9424 21.721 66.0144 20.8554 64.6863 20.8554L64.6864 20.8553ZM55.7983 27.7004H57.0311V20.8554H55.7983V27.7004ZM47.1332 20.8555V27.7005H51.2798V26.7678H48.3649V20.8555L47.1332 20.8555ZM40.116 22.6199L41.0628 25.4588H39.1347L40.116 22.6199ZM41.3551 26.3214L41.8117 27.7H43.0917L40.5696 20.855H39.5913L37.0776 27.7H38.3585L38.8351 26.3214H41.3551ZM50.0268 7.47423H44.7427V5.58161H50.87V4.4029H44.7427V2.00468H42.0112C41.7117 2.00468 41.4697 2.25591 41.4697 2.56471V4.40293H35.3854V5.58164H41.4697V7.47426H36.3344V8.65187H46.5629C46.5629 8.65187 45.9962 10.8638 43.1903 13.241C40.6766 11.339 39.8366 9.82428 39.8366 9.82428H37.0924C38.2026 11.7473 39.78 13.2871 41.4788 14.5087C39.9183 15.522 37.8946 16.4988 35.2783 17.2807V18.6918C35.2783 18.6918 39.3149 17.9307 43.2165 15.633C47.1243 17.913 51.0489 18.6918 51.0489 18.6918V17.3561C48.5372 16.4422 46.5472 15.4372 44.9845 14.4679C47.2479 12.792 49.2317 10.5173 50.0266 7.47426L50.0268 7.47423ZM67.1911 2.24081H64.4407V5.11324H57.6609V6.26995H64.4407V16.5971C64.4166 16.8336 64.2301 17.0179 63.9966 17.0304H62.5983V18.2269H66.1636C66.7282 18.2039 67.1785 17.736 67.1912 17.156V6.26992H68.3077V5.11321H67.1912L67.1911 2.24081ZM61.3906 8.21857C61.29 8.0134 61.0847 7.87208 60.8459 7.86999H58.5543L60.3401 13.4892H63.0508L61.3906 8.21857ZM54.6214 2.10481L51.4667 9.56328H53.8872V18.4381H56.5339V6.66595H55.5745L57.5677 2.10501L54.6214 2.10481ZM85.3129 18.031L84.3462 14.767C84.2812 14.5587 84.0927 14.408 83.8686 14.408H81.3056L82.0493 16.9151H79.0359V12.058H84.9526V10.9022H79.0359V8.61602H84.9526V7.46031H70.1879V8.61602H76.1035V10.9022H70.1879V12.058H76.1035V16.9151H70.1879V18.0708H85.3135L85.3009 18.031L85.3129 18.031ZM73.2642 4.70283H81.881V6.40805H84.9593V4.38773C84.9583 4.38354 84.9583 4.38145 84.9583 4.37622C84.9583 3.9219 84.6021 3.55448 84.1612 3.54715H79.1798V1.95703H75.9591V3.54715H70.1869V6.40808H73.2641L73.2642 4.70283Z" fill="#484A5A" />
</svg>
