<svg xmlns="http://www.w3.org/2000/svg" width="139" height="30" viewBox="0 0 139 30" fill="none">
	<path fill-rule="evenodd" clip-rule="evenodd" d="M123.294 30C131.578 30 138.293 23.2843 138.293 15C138.293 6.71573 131.578 0 123.294 0C115.01 0 108.295 6.71573 108.295 15C108.295 23.2843 115.01 30 123.294 30ZM123.392 15.9514L122.405 19.9022H130.216L129.414 23.0777H116.901L118.179 17.9755L116.37 18.6777L116.968 16.284L118.779 15.5812L120.947 6.92383H125.648L123.99 13.5577L126.291 12.6644L126.311 12.722L125.73 15.0439L123.392 15.9514Z" fill="#484A5A" />
	<path fill-rule="evenodd" clip-rule="evenodd" d="M51.2981 30C59.5819 30 66.2973 23.2843 66.2973 15C66.2973 6.71573 59.5819 0 51.2981 0C43.0142 0 36.2988 6.71573 36.2988 15C36.2988 23.2843 43.0142 30 51.2981 30ZM54.7334 8.82669C56.9054 9.60932 58.4939 10.7825 58.1818 12.9649C57.9559 14.5624 57.1093 15.3358 55.9853 15.6069C57.5287 16.4475 58.3141 17.7365 57.5659 19.9711C56.6374 22.7465 54.4316 22.9807 51.4981 22.4L50.7862 25.3845L49.0659 24.936L49.7685 21.9915C49.3226 21.8757 48.867 21.7527 48.3976 21.6194L47.6925 24.5777L45.9742 24.1293L46.6861 21.1392C46.5255 21.0962 46.3639 21.0521 46.2012 21.0077C45.9567 20.941 45.7097 20.8736 45.4597 20.8081L43.221 20.2243L44.075 18.1645C44.075 18.1645 45.3426 18.5171 45.3254 18.4909C45.8125 18.617 46.0285 18.2849 46.1138 18.0635L47.2388 13.3457C47.281 13.3563 47.3224 13.3671 47.3623 13.3776C47.3821 13.3828 47.4015 13.3879 47.4206 13.3928C47.352 13.3641 47.2897 13.3457 47.2417 13.3328L48.0443 9.96502C48.0654 9.58267 47.9394 9.10038 47.2427 8.91843C47.2696 8.89947 45.9933 8.59349 45.9933 8.59349L46.4509 6.6715L48.8233 7.29115L48.8214 7.30038C49.1781 7.39314 49.5456 7.4813 49.9199 7.57048L50.625 4.61523L52.3443 5.0637L51.6534 7.96103C52.115 8.07122 52.5795 8.18244 53.0317 8.30032L53.7177 5.42196L55.438 5.87042L54.7334 8.82669ZM49.292 19.5451C50.6957 19.9329 53.7635 20.7805 54.2513 18.7303C54.751 16.6341 51.7757 15.9357 50.3239 15.5949C50.1617 15.5569 50.0185 15.5232 49.9013 15.4926L48.9566 19.454C49.0529 19.479 49.1657 19.5102 49.292 19.5451ZM50.6156 13.7566C51.7859 14.0833 54.3387 14.7959 54.7834 12.9326C55.2374 11.0266 52.7564 10.4521 51.5446 10.1715C51.4083 10.1399 51.2881 10.1121 51.1899 10.0865L50.3334 13.6793C50.4143 13.7004 50.5093 13.7269 50.6156 13.7566Z" fill="#484A5A" />
	<path fill-rule="evenodd" clip-rule="evenodd" d="M15.3 30C23.5839 30 30.2993 23.2843 30.2993 15C30.2993 6.71573 23.5839 0 15.3 0C7.01617 0 0.300781 6.71573 0.300781 15C0.300781 23.2843 7.01617 30 15.3 30ZM17.0008 7.99836C19.3014 8.19213 21.1394 8.91419 21.4027 11.103C21.598 12.7046 20.9804 13.6708 19.9648 14.2236C21.6732 14.636 22.7655 15.6778 22.6211 18.03C22.4425 20.9511 20.3725 21.7483 17.3887 21.9466L17.4734 25.0137L15.6957 25.0257L15.6123 21.9997C15.1516 22.0032 14.6797 22.0024 14.1918 21.9951L14.2764 25.0352L12.5005 25.0467L12.4143 21.9742C12.2481 21.9743 12.0806 21.9735 11.9119 21.9727C11.6585 21.9716 11.4025 21.9705 11.144 21.9719L8.83057 21.9874L9.12238 19.7767C9.12238 19.7767 10.438 19.7892 10.4147 19.7684C10.9177 19.7641 11.0405 19.3874 11.0655 19.1515L10.9312 14.3032C10.9747 14.3025 11.0174 14.3023 11.0587 14.3021C11.0792 14.302 11.0993 14.3019 11.119 14.3017C11.0453 14.2917 10.9804 14.29 10.9307 14.2901L10.8343 10.8293C10.7557 10.4545 10.5093 10.0212 9.78917 10.0258C9.81029 10.0005 8.49822 10.0353 8.49822 10.0353L8.44284 8.06037L10.8948 8.04484L10.8953 8.05426C11.2638 8.05154 11.6416 8.04158 12.0263 8.03083L11.9425 4.99378L13.7193 4.98195L13.8018 7.95938C14.2761 7.94636 14.7536 7.93356 15.2209 7.93037L15.1386 4.97253L16.9163 4.96045L17.0008 7.99836ZM14.5189 19.7599C15.9751 19.7712 19.1578 19.7959 19.0983 17.6893C19.0385 15.5352 15.9839 15.6307 14.4933 15.6773C14.3268 15.6825 14.1797 15.6871 14.0586 15.6879L14.1714 19.7588C14.2708 19.758 14.3879 19.7589 14.5189 19.7599ZM14.2993 13.8261C15.5143 13.8388 18.1645 13.8664 18.1118 11.9514C18.0571 9.99287 15.5119 10.0801 14.2688 10.1227C14.129 10.1275 14.0056 10.1317 13.9042 10.1324L14.0067 13.8245C14.0903 13.8239 14.1889 13.825 14.2993 13.8261Z" fill="#484A5A" />
	<path fill-rule="evenodd" clip-rule="evenodd" d="M102.295 15C102.295 23.2843 95.58 30 87.2961 30C79.0123 30 72.2969 23.2843 72.2969 15C72.2969 6.71573 79.0123 0 87.2961 0C95.58 0 102.295 6.71573 102.295 15ZM87.2941 18.8902L80.6964 15.1896L80.6975 15.1892L80.6964 15.1886L87.2947 4.7998V4.802L87.2954 4.7998L93.8938 15.1886L93.8921 15.1895L93.8924 15.1896L87.2946 18.8902V18.8905L87.2944 18.8904L87.2941 18.8905V18.8902ZM87.2929 25.1976L80.6964 16.377L87.2943 20.0758L93.896 16.377L87.2947 25.1987V25.2L87.2943 25.1994L87.2938 25.2L87.2929 25.1976Z" fill="#484A5A" />
</svg>
