<svg fill="none" xmlns="http://www.w3.org/2000/svg" viewBox="0 0 44 46"><path d="M22.168 42.5c-.24 0-.481-.056-.698-.168l-7-3.635c-1.986-1.033-3.54-2.192-4.753-3.542-2.656-2.952-4.133-6.742-4.156-10.673l-.083-12.94c-.01-1.493.951-2.833 2.388-3.338l12.852-4.496a3.648 3.648 0 0 1 2.391-.013l12.902 4.342c1.444.484 2.42 1.815 2.428 3.306l.082 12.95c.026 3.925-1.4 7.73-4.015 10.715-1.2 1.37-2.74 2.545-4.706 3.597l-6.937 3.717a1.481 1.481 0 0 1-.695.178Z" fill="url(#a)"/><path d="M19.997 27.979a1.492 1.492 0 0 1-1.087-.463l-3.89-4.03a1.663 1.663 0 0 1-.013-2.271 1.483 1.483 0 0 1 2.168-.015l2.8 2.897 6.835-7.257a1.483 1.483 0 0 1 2.169-.015c.602.626.608 1.644.014 2.272l-7.915 8.404a1.488 1.488 0 0 1-1.08.478Z" fill="#17171F"/><defs><linearGradient id="a" x1="35.217" y1="5.574" x2="21.895" y2="42.462" gradientUnits="userSpaceOnUse"><stop stop-color="#189A73"/><stop offset="1" stop-color="#52D176"/></linearGradient></defs></svg>
