<svg xmlns="http://www.w3.org/2000/svg" width="97" height="30" viewBox="0 0 97 30" fill="none">
	<path d="M39.5546 0L34.698 29.9399H42.4607L47.3144 0C47.3144 0 39.5546 0 39.5546 0ZM62.9699 12.1958C60.2571 10.8687 58.5942 9.97306 58.5942 8.61574C58.6273 7.38163 60.0004 6.1173 63.0667 6.1173C65.5887 6.05454 67.4425 6.64169 68.8487 7.22589L69.5532 7.53737L70.6086 1.27321C69.0753 0.686052 66.6441 0.0390983 63.6412 0.0390983C55.9753 0.0390983 50.5774 3.98751 50.5439 9.63463C50.4805 13.8019 54.4085 16.1143 57.3481 17.5016C60.351 18.9246 61.3732 19.8472 61.3732 21.1115C61.3401 23.0527 58.9451 23.9484 56.7103 23.9484C53.6138 23.9484 51.9505 23.4871 49.4255 22.4055L48.4033 21.9441L47.3177 28.4541C49.1412 29.2571 52.4947 29.9639 55.9756 30C64.1224 30 69.4235 26.1114 69.4902 20.093C69.5167 16.7915 67.4454 14.2629 62.9699 12.1958ZM90.5098 0.0926557H84.5039C82.6532 0.0926557 81.2469 0.62001 80.4456 2.5014L68.9147 29.9399H77.0615L79.3053 23.9993H88.4199L89.5841 29.9639H96.7694L90.5098 0.0926557ZM81.5646 18.0043C81.7218 18.0194 84.6916 8.30688 84.6916 8.30688L87.0564 18.0043C87.0564 18.0043 83.0979 18.0043 81.5646 18.0043ZM28.2115 0L20.606 20.3414L19.7775 16.3299C18.3712 11.7013 13.9623 6.67159 9.04199 4.17315L16.0064 29.91H24.2199L36.425 0.00328389H28.2115V0Z" fill="#484A5A" />
	<path d="M17.219 3.86129C16.6263 1.57839 14.7361 0.0387163 12.169 0.00585938H0.124045L0 0.559826C9.39588 2.85455 17.2823 9.9155 19.8408 16.5572L17.219 3.86129Z" fill="#484A5A" />
</svg>
